<?xml version="1.0" encoding="utf-8"?>
<!-- Generator: Adobe Illustrator 27.5.0, SVG Export Plug-In . SVG Version: 6.00 Build 0)  -->
<svg version="1.1" xmlns="http://www.w3.org/2000/svg" xmlns:xlink="http://www.w3.org/1999/xlink" x="0px" y="0px"
	 viewBox="0 0 500 500" style="enable-background:new 0 0 500 500;" xml:space="preserve">
<g id="BACKGROUND">
	<rect x="0" style="fill:#FFFFFF;" width="499.999" height="500"/>
</g>
<g id="OBJECTS">
	<g>
		<g>
			<path style="fill:#6636CE;" d="M300.076,154.813c-2.446,0-4.536-0.663-6.265-1.99l5.713-7.439
				c0.563,0.251,4.567,0.147,13.06-5.55c6.288-4.219,12.829-10.07,16.278-14.558c2.892-3.765,4.429-7.835,4.328-11.46
				c-0.088-3.135-1.352-5.728-3.658-7.498l5.713-7.439c4.554,3.498,7.154,8.71,7.32,14.676c0.164,5.858-2.003,11.887-6.265,17.435
				c-4.219,5.493-11.995,12.406-19.346,17.2C310.187,152.601,304.541,154.813,300.076,154.813z"/>
		</g>
		<g>
			<path style="fill:#FFC043;" d="M346.998,165.044l-78.711-60.459l-39.696,8.189L125.928,246.428l120.731,92.736l102.662-133.654
				L346.998,165.044z M286.982,161.711c-4.541-3.488-5.395-9.997-1.907-14.538c3.488-4.541,9.997-5.395,14.539-1.907
				c4.541,3.488,5.395,9.997,1.907,14.539C298.033,164.346,291.524,165.199,286.982,161.711z"/>
		</g>
		<g>
			<path style="fill:#FFA840;" d="M307.783,134.922l-8.042,10.451c4.426,3.512,5.235,9.934,1.781,14.431
				c-3.458,4.502-9.882,5.374-14.417,1.99l-100.81,131.001l0,0l60.366,46.368l102.662-133.654l-2.324-40.465L307.783,134.922z"/>
		</g>
		<g>
			
				<rect x="184.061" y="212.146" transform="matrix(0.6092 -0.793 0.793 0.6092 -154.4362 263.1666)" style="fill:#FF833E;" width="11.427" height="152.237"/>
		</g>
		<g>
			
				<rect x="214.244" y="273.389" transform="matrix(0.6092 -0.793 0.793 0.6092 -161.0255 296.1645)" style="fill:#FF6224;" width="11.427" height="76.118"/>
		</g>
		<g>
			<path style="fill:#FF6224;" d="M303.659,140c-7.449-5.722-18.126-4.322-23.848,3.128c-5.722,7.449-4.322,18.127,3.128,23.848
				c7.449,5.722,18.127,4.322,23.848-3.128C312.508,156.4,311.108,145.722,303.659,140z M286.982,161.711
				c-4.541-3.488-5.395-9.997-1.907-14.538c3.488-4.541,9.997-5.395,14.539-1.907c4.541,3.488,5.395,9.997,1.907,14.539
				C298.033,164.346,291.524,165.199,286.982,161.711z"/>
		</g>
		<g>
			<path style="fill:#6636CE;" d="M293.811,152.823c-4.887-3.754-5.388-11.679-1.492-23.555c2.737-8.34,7.41-17.635,11.631-23.128
				c4.262-5.549,9.527-9.196,15.229-10.549c5.807-1.378,11.514-0.209,16.066,3.288l-5.713,7.438
				c-2.306-1.771-5.14-2.324-8.188-1.599c-3.529,0.837-7.064,3.371-9.957,7.136c-3.448,4.489-7.414,12.318-9.868,19.482
				c-3.315,9.673-2.385,13.57-1.954,14.084L293.811,152.823z"/>
		</g>
		<g>
			<path style="fill:#8F78FF;" d="M337.977,110.435c-0.55,0-1.041-0.389-1.15-0.949c-0.615-3.165-2.265-5.855-4.769-7.779
				c-0.513-0.394-0.61-1.131-0.215-1.644c0.395-0.512,1.13-0.61,1.644-0.215c2.964,2.278,4.915,5.456,5.641,9.191
				c0.124,0.635-0.291,1.251-0.927,1.375C338.125,110.428,338.051,110.435,337.977,110.435z"/>
		</g>
		<g>
			<path style="fill:#8F78FF;" d="M299.198,124.573c-0.149,0-0.299-0.029-0.444-0.088c-0.6-0.246-0.886-0.93-0.641-1.53
				c2.621-6.394,5.989-12.559,9.01-16.493c7.519-9.791,18.607-12.573,26.365-6.615c0.513,0.394,0.61,1.131,0.215,1.644
				c-0.394,0.513-1.128,0.611-1.644,0.215c-6.676-5.13-16.383-2.53-23.077,6.183c-2.901,3.777-6.153,9.741-8.698,15.954
				C300.096,124.299,299.659,124.573,299.198,124.573z"/>
		</g>
		<g>
			<g>
				
					<rect x="164.265" y="108.509" transform="matrix(0.9853 0.1708 -0.1708 0.9853 27.0741 -32.2842)" style="fill:#FFC043;" width="73.81" height="65.401"/>
			</g>
			<g>
				
					<rect x="164.684" y="103.632" transform="matrix(0.9853 0.1708 -0.1708 0.9853 25.8277 -27.5504)" style="fill:#FF833E;" width="16.698" height="65.401"/>
			</g>
			<g>
				
					<rect x="161.903" y="135.957" transform="matrix(0.9853 0.1708 -0.1708 0.9853 28.5269 -26.8397)" style="fill:#FF6224;" width="16.698" height="32.837"/>
			</g>
		</g>
		<g>
			<g>
				
					<rect x="292.01" y="206.633" transform="matrix(-0.4191 -0.9079 0.9079 -0.4191 249.4581 638.2726)" style="fill:#FFA840;" width="73.81" height="65.401"/>
			</g>
			<g>
				
					<rect x="332.534" y="232.56" transform="matrix(-0.4191 -0.9079 0.9079 -0.4191 242.9005 685.9314)" style="fill:#FF833E;" width="16.698" height="65.401"/>
			</g>
			<g>
				
					<rect x="317.689" y="255.763" transform="matrix(-0.4191 -0.9079 0.9079 -0.4191 215.6124 682.1767)" style="fill:#FF6224;" width="16.698" height="32.701"/>
			</g>
		</g>
		<g>
			<g>
				
					<rect x="153.551" y="210.564" transform="matrix(0.6091 -0.7931 0.7931 0.6091 -107.907 205.1231)" style="fill:#FF6224;" width="1.173" height="2.931"/>
			</g>
			<g>
				<path style="fill:#FF6224;" d="M266.382,298.986l-4.644-3.567l0.715-0.93l4.644,3.567L266.382,298.986z M257.095,291.853
					l-4.643-3.567l0.714-0.93l4.643,3.566L257.095,291.853z M247.808,284.72l-4.643-3.567l0.714-0.93l4.643,3.567L247.808,284.72z
					 M238.522,277.587l-4.643-3.568l0.714-0.93l4.643,3.568L238.522,277.587z M229.235,270.453l-4.643-3.566l0.715-0.93l4.643,3.566
					L229.235,270.453z M219.949,263.319l-4.644-3.567l0.715-0.93l4.643,3.567L219.949,263.319z M210.662,256.186l-4.643-3.566
					l0.714-0.93l4.643,3.566L210.662,256.186z M201.376,249.054l-4.643-3.567l0.714-0.93l4.643,3.567L201.376,249.054z
					 M192.089,241.92l-4.643-3.567l0.714-0.93l4.643,3.567L192.089,241.92z M182.802,234.787l-4.643-3.567l0.715-0.93l4.643,3.567
					L182.802,234.787z M173.516,227.654l-4.643-3.567l0.714-0.93l4.644,3.567L173.516,227.654z M164.229,220.521l-4.643-3.567
					l0.714-0.93l4.643,3.566L164.229,220.521z"/>
			</g>
			<g>
				
					<rect x="271.958" y="301.515" transform="matrix(0.6091 -0.7931 0.7931 0.6091 -133.7539 334.5966)" style="fill:#FF6224;" width="1.172" height="2.931"/>
			</g>
		</g>
		<g>
			<path style="fill:#C44A20;" d="M306.786,163.849c5.722-7.449,4.322-18.127-3.128-23.848l-4.044,5.265l0,0
				c4.541,3.488,5.395,9.997,1.907,14.539c-3.488,4.541-9.997,5.395-14.539,1.907l0,0l-4.044,5.265
				C290.387,172.698,301.064,171.298,306.786,163.849z"/>
		</g>
		<g>
			<path style="fill:#FF6224;" d="M184.717,170.854l-0.93-0.714l3.571-4.649l0.93,0.715L184.717,170.854z M191.859,161.556
				l-0.93-0.715l3.571-4.648l0.93,0.714L191.859,161.556z M199.001,152.258l-0.93-0.714l3.571-4.649l0.93,0.714L199.001,152.258z
				 M206.143,142.96l-0.93-0.714l3.571-4.649l0.93,0.715L206.143,142.96z M213.285,133.662l-0.93-0.714l3.571-4.649l0.93,0.714
				L213.285,133.662z M220.427,124.364l-0.93-0.715l3.571-4.649l0.93,0.714L220.427,124.364z M227.57,115.065l-0.93-0.715
				l1.486-1.935l0.93,0.715L227.57,115.065z"/>
		</g>
		<g>
			<path style="fill:#FF6224;" d="M304.791,264.446l-0.93-0.714l3.571-4.649l0.93,0.715L304.791,264.446z M311.933,255.148
				l-0.93-0.714l3.571-4.649l0.93,0.715L311.933,255.148z M319.076,245.85l-0.93-0.714l3.57-4.649l0.93,0.714L319.076,245.85z
				 M326.217,236.552l-0.93-0.714l3.571-4.649l0.93,0.715L326.217,236.552z M333.359,227.253l-0.93-0.714L336,221.89l0.93,0.715
				L333.359,227.253z M340.501,217.956l-0.93-0.714l3.571-4.649l0.93,0.715L340.501,217.956z M347.644,208.658l-0.93-0.714
				l2.143-2.791l0.93,0.715L347.644,208.658z"/>
		</g>
	</g>
</g>
<g id="TEXTS">
	<g>
		<g>
			<text transform="matrix(1 0 0 1 107.2611 382.7432)"><tspan x="0" y="0" style="fill:#3C2E6D; font-family:'Outfit-Black'; font-size:41.422px;">cloth</tspan><tspan x="144.644" y="0" style="fill:#FF833E; font-family:'Outfit-Black'; font-size:41.422px;">store</tspan></text>
		</g>
		
			<text transform="matrix(1 0 0 1 160.3913 401.3652)" style="fill:#4D378C; font-family:'Lato-Semibold'; font-size:13px; letter-spacing:1;">your tagline goes here</text>
	</g>
</g>
</svg>
